<svg id="Layer_1" data-name="Layer 1" xmlns="http://www.w3.org/2000/svg" xmlns:xlink="http://www.w3.org/1999/xlink" width="48" height="48" viewBox="0 0 48 48"><defs><style>.cls-1{fill:none;}.cls-2{clip-path:url(#clip-path);}.cls-3{fill:#ffd050;}.cls-4{fill:#232536;}</style><clipPath id="clip-path"><rect class="cls-1" x="12.5" y="12.5" width="23" height="23"/></clipPath></defs><g class="cls-2"><path class="cls-3" d="M18.35,18.71l-2,.16a1.78,1.78,0,0,0-1.36.79l-2.3,3.48a1.24,1.24,0,0,0-.09,1.18,1.22,1.22,0,0,0,.93.71l1.83.29A16.4,16.4,0,0,1,18.35,18.71Z"/><path class="cls-3" d="M22.68,32.63,23,34.46a1.21,1.21,0,0,0,.72.93,1.24,1.24,0,0,0,.49.11,1.26,1.26,0,0,0,.68-.2L28.34,33a1.82,1.82,0,0,0,.8-1.36l.15-2A16.4,16.4,0,0,1,22.68,32.63Z"/><path class="cls-3" d="M22,31.37l.19,0a13.17,13.17,0,0,0,2.73-.78l-7.5-7.49a13.15,13.15,0,0,0-.77,2.73,1.19,1.19,0,0,0,.33,1L21.16,31A1.22,1.22,0,0,0,22,31.37Z"/><path class="cls-4" d="M33.67,22.7a18.17,18.17,0,0,0,1.8-9.06,1.17,1.17,0,0,0-1.11-1.11c-.29,0-.63,0-1,0a17.87,17.87,0,0,0-8,1.83A18.3,18.3,0,0,0,18,21.78l.06,0,8.09,8.09,0,.06A18.3,18.3,0,0,0,33.67,22.7Zm-7.8-5.34a3.39,3.39,0,1,1-1,2.38A3.39,3.39,0,0,1,25.87,17.36Z"/><path class="cls-4" d="M26.83,21.17a2,2,0,0,0,3.45-1.43,2,2,0,0,0-.59-1.42,2,2,0,0,0-1.43-.6,2,2,0,0,0-1.43.6,2,2,0,0,0-.6,1.42A2,2,0,0,0,26.83,21.17Z"/><path class="cls-3" d="M13.19,31.45a.66.66,0,0,0,.47-.19l2.2-2.2a.68.68,0,1,0-.95-1l-2.2,2.2a.69.69,0,0,0,0,1A.68.68,0,0,0,13.19,31.45Z"/><path class="cls-3" d="M17.88,30.12a.68.68,0,0,0-.95,0L12.7,34.35a.66.66,0,0,0,0,.95.66.66,0,0,0,1,0l4.23-4.23A.68.68,0,0,0,17.88,30.12Z"/><path class="cls-3" d="M18.94,32.14l-2.2,2.2a.68.68,0,0,0,0,.95.69.69,0,0,0,.48.2.71.71,0,0,0,.48-.2l2.2-2.2a.68.68,0,1,0-1-1Z"/></g></svg>